<mxfile host="65bd71144e">
    <diagram id="CRw7efR5FtoyB9GC_rWU" name="Страница 1">
        <mxGraphModel dx="838" dy="514" grid="1" gridSize="10" guides="1" tooltips="1" connect="1" arrows="1" fold="1" page="1" pageScale="1" pageWidth="827" pageHeight="1169" math="0" shadow="0">
            <root>
                <mxCell id="0"/>
                <mxCell id="1" parent="0"/>
                <mxCell id="4" value="" style="edgeStyle=none;html=1;fontSize=14;" parent="1" source="2" target="3" edge="1">
                    <mxGeometry relative="1" as="geometry"/>
                </mxCell>
                <mxCell id="2" value="&lt;font style=&quot;font-size: 14px&quot;&gt;Start&lt;/font&gt;" style="ellipse;whiteSpace=wrap;html=1;" parent="1" vertex="1">
                    <mxGeometry x="300" y="10" width="104" height="60" as="geometry"/>
                </mxCell>
                <mxCell id="6" value="" style="edgeStyle=none;html=1;fontSize=14;" parent="1" source="3" target="5" edge="1">
                    <mxGeometry relative="1" as="geometry"/>
                </mxCell>
                <mxCell id="3" value="&lt;font style=&quot;font-size: 14px&quot;&gt;lines [ ]&lt;br&gt;lgth&lt;/font&gt;" style="shape=parallelogram;perimeter=parallelogramPerimeter;whiteSpace=wrap;html=1;fixedSize=1;" parent="1" vertex="1">
                    <mxGeometry x="296" y="100" width="112" height="50" as="geometry"/>
                </mxCell>
                <mxCell id="8" value="" style="edgeStyle=none;html=1;fontSize=14;" parent="1" source="5" target="7" edge="1">
                    <mxGeometry relative="1" as="geometry"/>
                </mxCell>
                <mxCell id="5" value="count = 0&lt;br&gt;filterLines = [ ]" style="rounded=1;whiteSpace=wrap;html=1;fontSize=14;" parent="1" vertex="1">
                    <mxGeometry x="292" y="180" width="120" height="60" as="geometry"/>
                </mxCell>
                <mxCell id="10" value="" style="edgeStyle=none;html=1;fontSize=14;" parent="1" source="7" target="9" edge="1">
                    <mxGeometry relative="1" as="geometry"/>
                </mxCell>
                <mxCell id="26" style="edgeStyle=none;html=1;fontSize=14;" edge="1" parent="1" source="7" target="20">
                    <mxGeometry relative="1" as="geometry"/>
                </mxCell>
                <mxCell id="7" value="i = 0, lines.Length - 1, 1" style="shape=hexagon;perimeter=hexagonPerimeter2;whiteSpace=wrap;html=1;fixedSize=1;fontSize=14;" parent="1" vertex="1">
                    <mxGeometry x="258" y="270" width="188" height="40" as="geometry"/>
                </mxCell>
                <mxCell id="12" value="" style="edgeStyle=none;html=1;fontSize=14;" edge="1" parent="1" source="9" target="11">
                    <mxGeometry relative="1" as="geometry"/>
                </mxCell>
                <mxCell id="28" style="edgeStyle=none;html=1;fontSize=14;" edge="1" parent="1" source="9">
                    <mxGeometry relative="1" as="geometry">
                        <mxPoint x="160" y="370" as="targetPoint"/>
                    </mxGeometry>
                </mxCell>
                <mxCell id="9" value="lines [ i ].Length &amp;lt; = lgth" style="rhombus;whiteSpace=wrap;html=1;fontSize=14;" parent="1" vertex="1">
                    <mxGeometry x="243" y="340" width="218" height="60" as="geometry"/>
                </mxCell>
                <mxCell id="31" style="edgeStyle=none;html=1;entryX=0.5;entryY=0;entryDx=0;entryDy=0;fontSize=14;" edge="1" parent="1" source="11" target="13">
                    <mxGeometry relative="1" as="geometry"/>
                </mxCell>
                <mxCell id="11" value="&lt;font style=&quot;font-size: 14px&quot;&gt;count = count + 1&lt;br&gt;&lt;/font&gt;&lt;font style=&quot;font-size: 14px&quot;&gt;tempFilterLines = [ count ]&lt;/font&gt;" style="rounded=0;whiteSpace=wrap;html=1;" vertex="1" parent="1">
                    <mxGeometry x="263" y="430" width="178" height="60" as="geometry"/>
                </mxCell>
                <mxCell id="15" value="" style="edgeStyle=none;html=1;fontSize=14;" edge="1" parent="1" source="13" target="14">
                    <mxGeometry relative="1" as="geometry"/>
                </mxCell>
                <mxCell id="18" value="" style="edgeStyle=none;html=1;fontSize=14;" edge="1" parent="1" source="13" target="17">
                    <mxGeometry relative="1" as="geometry">
                        <Array as="points">
                            <mxPoint x="560" y="540"/>
                            <mxPoint x="560" y="680"/>
                            <mxPoint x="352" y="680"/>
                        </Array>
                    </mxGeometry>
                </mxCell>
                <mxCell id="13" value="j = 0, count - 2, 1" style="shape=hexagon;perimeter=hexagonPerimeter2;whiteSpace=wrap;html=1;fixedSize=1;fontSize=14;" vertex="1" parent="1">
                    <mxGeometry x="258" y="520" width="188" height="40" as="geometry"/>
                </mxCell>
                <mxCell id="16" style="edgeStyle=none;html=1;entryX=0;entryY=0.5;entryDx=0;entryDy=0;fontSize=14;exitX=0;exitY=0.5;exitDx=0;exitDy=0;" edge="1" parent="1" source="14" target="13">
                    <mxGeometry relative="1" as="geometry">
                        <Array as="points">
                            <mxPoint x="200" y="623"/>
                            <mxPoint x="200" y="540"/>
                        </Array>
                    </mxGeometry>
                </mxCell>
                <mxCell id="14" value="tempFilterLines [ j ] = filterLines [ j ]" style="rounded=0;whiteSpace=wrap;html=1;fontSize=14;" vertex="1" parent="1">
                    <mxGeometry x="238" y="600" width="228" height="45" as="geometry"/>
                </mxCell>
                <mxCell id="19" style="edgeStyle=none;html=1;fontSize=14;entryX=0;entryY=0.5;entryDx=0;entryDy=0;" edge="1" parent="1" source="17" target="7">
                    <mxGeometry relative="1" as="geometry">
                        <mxPoint x="140" y="360" as="targetPoint"/>
                        <Array as="points">
                            <mxPoint x="160" y="745"/>
                            <mxPoint x="160" y="290"/>
                        </Array>
                    </mxGeometry>
                </mxCell>
                <mxCell id="17" value="&lt;span&gt;tempFilterLines [ count - 1 ] = lines [ i ]&lt;br&gt;&lt;/span&gt;&amp;nbsp;filterLines = tempFilterLines&lt;span&gt;&lt;br&gt;&lt;/span&gt;" style="rounded=0;whiteSpace=wrap;html=1;fontSize=14;" vertex="1" parent="1">
                    <mxGeometry x="222" y="720" width="260" height="50" as="geometry"/>
                </mxCell>
                <mxCell id="25" value="" style="edgeStyle=none;html=1;fontSize=14;" edge="1" parent="1" source="20" target="22">
                    <mxGeometry relative="1" as="geometry"/>
                </mxCell>
                <mxCell id="20" value="Вывод filterLines" style="shape=document;whiteSpace=wrap;html=1;boundedLbl=1;fontSize=14;" vertex="1" parent="1">
                    <mxGeometry x="640" y="250" width="120" height="80" as="geometry"/>
                </mxCell>
                <mxCell id="22" value="End" style="ellipse;whiteSpace=wrap;html=1;fontSize=14;" vertex="1" parent="1">
                    <mxGeometry x="650" y="350" width="100" height="60" as="geometry"/>
                </mxCell>
                <mxCell id="27" value="YES" style="text;html=1;align=center;verticalAlign=middle;resizable=0;points=[];autosize=1;strokeColor=none;fillColor=none;fontSize=14;" vertex="1" parent="1">
                    <mxGeometry x="360" y="400" width="40" height="20" as="geometry"/>
                </mxCell>
                <mxCell id="29" value="NO" style="text;html=1;align=center;verticalAlign=middle;resizable=0;points=[];autosize=1;strokeColor=none;fillColor=none;fontSize=14;" vertex="1" parent="1">
                    <mxGeometry x="198" y="350" width="40" height="20" as="geometry"/>
                </mxCell>
            </root>
        </mxGraphModel>
    </diagram>
</mxfile>